<svg width="1024" height="768" xmlns="http://www.w3.org/2000/svg">
 <title>annotation</title>

 <g>
  <title>background</title>
  <rect fill="none" id="canvas_background" height="770" width="1026" y="-1" x="-1"/>
 </g>
 <g>
  <title>Layer 1</title>
  <rect id="svg_2" fill="#2f2e41" height="105.99636" width="122.46182" y="260.741647" x="770.215266"/>
  <rect stroke="null" id="svg_3" fill="#3f3d56" height="291.23273" width="350.92" y="290.585287" x="355.491626"/>
  <rect id="svg_4" fill="#fff" height="17.49455" width="139.95636" y="338.952557" x="460.973446"/>
  <rect id="svg_5" fill="#fff" height="10.29091" width="97.24909" y="380.116197" x="403.344356"/>
  <rect id="svg_6" fill="#fff" height="10.29091" width="97.24909" y="448.036197" x="481.555266"/>
  <rect id="svg_7" fill="#4353ff" height="10.29091" width="97.24909" y="380.116197" x="559.766176"/>
  <rect id="svg_8" fill="#4353ff" height="4.76431" width="88.50182" y="320.428927" x="786.680726"/>
  <rect id="svg_9" fill="#4353ff" height="4.76431" width="88.50182" y="330.910407" x="785.651626"/>
  <rect id="svg_10" fill="#4353ff" height="4.76431" width="88.50182" y="341.391887" x="786.680726"/>
  <rect id="svg_11" fill="#4353ff" height="4.76431" width="88.50182" y="285.439837" x="786.680726"/>
  <rect id="svg_12" fill="#4353ff" height="4.76431" width="88.50182" y="295.921317" x="785.651626"/>
  <rect id="svg_13" fill="#4353ff" height="4.76431" width="88.50182" y="306.402797" x="786.680726"/>
  <rect stroke="null" id="svg_14" fill="#3f3d56" height="105.99636" width="122.46182" y="295.730737" x="805.204356"/>
  <rect id="svg_15" fill="#4353ff" height="4.76431" width="88.50182" y="355.418017" x="821.669816"/>
  <rect id="svg_16" fill="#4353ff" height="4.76431" width="88.50182" y="365.899497" x="820.640726"/>
  <rect id="svg_17" fill="#4353ff" height="4.76431" width="88.50182" y="376.380977" x="821.669816"/>
  <rect id="svg_18" fill="#4353ff" height="4.76431" width="88.50182" y="320.428927" x="821.669816"/>
  <rect id="svg_19" fill="#4353ff" height="4.76431" width="88.50182" y="330.910407" x="820.640726"/>
  <rect id="svg_20" fill="#4353ff" height="4.76431" width="88.50182" y="341.391887" x="821.669816"/>
  <rect x="78.666176" id="svg_21" fill="#3f3d56" height="105.99636" width="122.46182" y="336.894377"/>
  <rect id="svg_22" fill="#4353ff" height="4.76431" width="88.50182" y="396.581647" x="95.131626"/>
  <rect id="svg_23" fill="#4353ff" height="4.76431" width="88.50182" y="407.063137" x="94.102536"/>
  <rect id="svg_24" fill="#4353ff" height="4.76431" width="88.50182" y="417.544617" x="95.131626"/>
  <rect id="svg_25" fill="#4353ff" height="4.76431" width="88.50182" y="361.592557" x="95.131626"/>
  <rect id="svg_26" fill="#4353ff" height="4.76431" width="88.50182" y="372.074037" x="94.102536"/>
  <rect id="svg_27" fill="#4353ff" height="4.76431" width="88.50182" y="382.555527" x="95.131626"/>
  <rect id="svg_28" fill="#fff" height="10.29091" width="255.21455" y="414.076197" x="403.344356"/>
  <rect id="svg_29" fill="#4353ff" height="10.29091" width="57.11455" y="448.036197" x="403.344356"/>
  <rect id="svg_30" fill="#fff" height="10.29091" width="57.11455" y="515.956197" x="403.344356"/>
  <rect id="svg_31" fill="#fff" height="10.29091" width="57.11455" y="448.036197" x="599.900726"/>
  <rect id="svg_32" fill="#fff" height="10.29091" width="255.21455" y="481.996197" x="403.344356"/>
  <rect id="svg_33" fill="#fff" height="10.29091" width="149.73273" y="515.956197" x="508.826176"/>
  <polygon id="svg_34" fill="#2f2e41" points="634.1632080078125,385.8872833251953 632.5291748046875,384.6362762451172 743.9791870117188,239.13028717041016 854.6011962890625,239.13028717041016 854.6011962890625,241.18929290771484 744.9962158203125,241.18929290771484 634.1632080078125,385.8872833251953 "/>
  <polygon id="svg_35" fill="#2f2e41" points="409.3641662597656,453.9633026123047 246.02818298339844,314.25428771972656 136.29517364501953,314.25428771972656 136.29517364501953,312.19627380371094 246.78817749023438,312.19627380371094 410.7021789550781,452.39927673339844 409.3641662597656,453.9633026123047 "/>
  <circle id="svg_36" fill="#4353ff" r="16.46545" cy="240.464058" cx="859.934028"/>
  <circle id="svg_37" fill="#4353ff" r="16.46545" cy="313.225287" cx="136.295266"/>
 </g>
</svg>