<svg width="1126.19355" height="855" xmlns="http://www.w3.org/2000/svg">
 <title>code review</title>

 <g>
  <title>background</title>
  <rect fill="none" id="canvas_background" height="402" width="582" y="-1" x="-1"/>
 </g>
 <g>
  <title>Layer 1</title>
  <path id="svg_1" fill="#f2f2f2" d="m544.864271,755.93794c-242.39884,-18.44657 -531.47073,-206.26628 -516.75365,-399.6574s294.68632,-373.42208 537.08515,-354.97554s381.93189,379.862 367.21481,573.25309s-145.14748,199.82642 -387.54631,181.37985z"/>
  <ellipse id="svg_2" fill="#3f3d56" ry="31" rx="506" cy="756" cx="565.19355"/>
  <ellipse id="svg_3" opacity="0.1" ry="20.5" rx="431" cy="755.5" cx="565.19355"/>
  <rect id="svg_6" fill="#3f3d56" height="590" width="752" y="153.111111" x="169.526882"/>
  <path id="svg_7" fill="#f2f2f2" d="m688.082572,242.62914l-185.51772,0a2.25143,2.25143 0 1 1 0,-4.50285l185.51772,0a2.25143,2.25143 0 0 1 0,4.50285z"/>
  <path id="svg_8" fill="#f2f2f2" d="m840.050307,271.839305l-291.78514,0a2.25143,2.25143 0 0 1 0,-4.50286l291.78514,0a2.25143,2.25143 0 1 1 0,4.50286z"/>
  <path id="svg_9" fill="#f2f2f2" d="m564.538691,292.16057l-185.51772,0a2.25143,2.25143 0 1 1 0,-4.50286l185.51772,0a2.25143,2.25143 0 1 1 0,4.50286z"/>
  <path id="svg_10" fill="#f2f2f2" d="m766.716971,292.61086l-185.51771,0a2.25143,2.25143 0 0 1 0,-4.50286l185.51771,0a2.25143,2.25143 0 1 1 0,4.50286z"/>
  <path id="svg_11" fill="#f2f2f2" d="m638.322307,316.92629l-185.51771,0a2.25143,2.25143 0 0 1 0,-4.50286l185.51771,0a2.25143,2.25143 0 1 1 0,4.50286z"/>
  <path id="svg_12" fill="#f2f2f2" d="m565.439261,341.692l-185.51772,0a2.25143,2.25143 0 0 1 0,-4.50286l185.51772,0a2.25143,2.25143 0 1 1 0,4.50286z"/>
  <path id="svg_13" fill="#f2f2f2" d="m789.642691,247.523875l-53.13372,0a2.25143,2.25143 0 0 1 0,-4.50286l53.13372,0a2.25143,2.25143 0 1 1 0,4.50286z"/>
  <path id="svg_14" fill="#f2f2f2" d="m800.753806,310.259623l-53.13372,0a2.25143,2.25143 0 0 1 0,-4.50286l53.13372,0a2.25143,2.25143 0 1 1 0,4.50286z"/>
  <path id="svg_15" fill="#f2f2f2" d="m649.642691,341.24171l-53.13372,0a2.25143,2.25143 0 1 1 0,-4.50285l53.13372,0a2.25143,2.25143 0 1 1 0,4.50285z"/>
  <path id="svg_16" fill="#f2f2f2" d="m738.799261,341.24171l-53.13372,0a2.25143,2.25143 0 0 1 0,-4.50285l53.13372,0a2.25143,2.25143 0 1 1 0,4.50285z"/>
  <path id="svg_17" fill="#f2f2f2" d="m501.914946,276.283749l-53.13371,0a2.25143,2.25143 0 0 1 0,-4.50286l53.13371,0a2.25143,2.25143 0 0 1 0,4.50286z"/>
  <path id="svg_18" fill="#f2f2f2" d="m457.196589,600.693903l-185.51772,0a2.25143,2.25143 0 0 1 0,-4.50286l185.51772,0a2.25143,2.25143 0 0 1 0,4.50286z"/>
  <path id="svg_19" fill="#f2f2f2" d="m454.073799,656.892l-185.51772,0a2.25143,2.25143 0 1 1 0,-4.50286l185.51772,0a2.25143,2.25143 0 0 1 0,4.50286z"/>
  <path id="svg_20" fill="#f2f2f2" d="m563.412971,681.65771l-185.51771,0a2.25143,2.25143 0 1 1 0,-4.50285l185.51771,0a2.25143,2.25143 0 1 1 0,4.50285z"/>
  <path id="svg_21" fill="#f2f2f2" d="m547.107704,655.120068l-53.13372,0a2.25143,2.25143 0 0 1 0,-4.50286l53.13372,0a2.25143,2.25143 0 0 1 0,4.50286z"/>
  <path id="svg_22" fill="#f2f2f2" d="m642.663261,681.65771l-53.13372,0a2.25142,2.25142 0 0 1 0,-4.50285l53.13372,0a2.25142,2.25142 0 1 1 0,4.50285z"/>
  <path id="svg_23" fill="#f2f2f2" d="m651.819831,652.897845l-53.13371,0a2.25143,2.25143 0 1 1 0,-4.50286l53.13371,0a2.25143,2.25143 0 0 1 0,4.50286z"/>
  <path id="svg_24" fill="#f2f2f2" d="m649.164343,627.681845l-291.78515,0a2.25143,2.25143 0 0 1 0,-4.50286l291.78515,0a2.25143,2.25143 0 0 1 0,4.50286z"/>
  <path id="svg_25" fill="#f2f2f2" d="m331.028971,627.681845l-53.13371,0a2.25143,2.25143 0 0 1 0,-4.50286l53.13371,0a2.25143,2.25143 0 0 1 0,4.50286z"/>
  <path id="svg_26" fill="#f2f2f2" d="m549.164335,720.207044l-291.78515,0a2.25143,2.25143 0 1 1 0,-4.50285l291.78515,0a2.25142,2.25142 0 0 1 0,4.50285z"/>
  <path id="svg_27" fill="#f2f2f2" d="m431.028971,706.87371l-53.13371,0a2.25143,2.25143 0 1 1 0,-4.50285l53.13371,0a2.25143,2.25143 0 1 1 0,4.50285z"/>
  <polygon id="svg_28" fill="#4353ff" points="501.28221130371094,410.01890754699707 429.23622131347656,481.16389656066895 501.28221130371094,552.3088855743408 517.4922332763672,536.0989246368408 463.0082244873047,481.6139087677002 517.9421844482422,426.67891120910645 501.28221130371094,410.01890754699707 "/>
  <polygon id="svg_29" fill="#4353ff" points="591.9937210083008,412.2411127090454 664.039680480957,483.3861017227173 591.9937210083008,554.5311212539673 575.7836990356445,538.3211603164673 630.268684387207,483.83611392974854 575.3336868286133,428.9011163711548 591.9937210083008,412.2411127090454 "/>
  <circle id="svg_30" fill="#4353ff" r="9" cy="177" cx="216.19355"/>
  <circle id="svg_31" fill="#4353ff" r="9" cy="177" cx="240.19355"/>
  <circle id="svg_32" fill="#4353ff" r="9" cy="177" cx="264.19355"/>
  <rect id="svg_33" opacity="0.1" height="3" width="752" y="192" x="196.19355"/>
  <path id="svg_34" fill="#4353ff" d="m1126.193541,607.45357c0,63.77108 -37.91089,86.03756 -84.67635,86.03756s-84.67635,-22.26648 -84.67635,-86.03756s84.67635,-144.898 84.67635,-144.898s84.67635,81.12692 84.67635,144.898z"/>
  <polygon id="svg_35" fill="#3f3d56" points="1038.433 683.736 1039.3 630.365 1075.391 564.338 1039.436 621.993 1039.826 597.995 1064.699 550.226 1039.929 591.645 1039.929 591.645 1040.63 548.484 1067.265 510.453 1040.74 541.697 1041.178 462.556 1038.425 567.325 1038.651 563.003 1011.571 521.552 1038.217 571.3 1035.694 619.503 1035.619 618.223 1004.4 574.602 1035.524 622.743 1035.209 628.771 1035.152 628.862 1035.178 629.357 1028.776 751.653 1037.329 751.653 1038.355 688.485 1069.404 640.461 1038.433 683.736"/>
 </g>
</svg>